<?xml version="1.0" encoding="utf-8" standalone="no"?>
<!DOCTYPE svg PUBLIC "-//W3C//DTD SVG 1.1//EN"
  "http://www.w3.org/Graphics/SVG/1.1/DTD/svg11.dtd">
<!-- Created with matplotlib (https://matplotlib.org/) -->
<svg height="288pt" version="1.1" viewBox="0 0 432 288" width="432pt" xmlns="http://www.w3.org/2000/svg" xmlns:xlink="http://www.w3.org/1999/xlink">
 <defs>
  <style type="text/css">
*{stroke-linecap:butt;stroke-linejoin:round;}
  </style>
 </defs>
 <g id="figure_1">
  <g id="patch_1">
   <path d="M 0 288 
L 432 288 
L 432 0 
L 0 0 
z
" style="fill:#ffffff;"/>
  </g>
  <g id="axes_1">
   <g id="patch_2">
    <path d="M 54 252 
L 388.8 252 
L 388.8 34.56 
L 54 34.56 
z
" style="fill:#ffffff;"/>
   </g>
   <g id="matplotlib.axis_1">
    <g id="xtick_1">
     <g id="line2d_1">
      <path clip-path="url(#p42324a7577)" d="M 75.316844 252 
L 75.316844 34.56 
" style="fill:none;stroke:#b0b0b0;stroke-linecap:square;stroke-width:0.8;"/>
     </g>
     <g id="line2d_2">
      <defs>
       <path d="M 0 0 
L 0 3.5 
" id="m5bd81f00f2" style="stroke:#000000;stroke-width:0.8;"/>
      </defs>
      <g>
       <use style="stroke:#000000;stroke-width:0.8;" x="75.316844" xlink:href="#m5bd81f00f2" y="252"/>
      </g>
     </g>
     <g id="text_1">
      <!-- −5 -->
      <defs>
       <path d="M 10.59375 35.5 
L 73.1875 35.5 
L 73.1875 27.203125 
L 10.59375 27.203125 
z
" id="DejaVuSans-8722"/>
       <path d="M 10.796875 72.90625 
L 49.515625 72.90625 
L 49.515625 64.59375 
L 19.828125 64.59375 
L 19.828125 46.734375 
Q 21.96875 47.46875 24.109375 47.828125 
Q 26.265625 48.1875 28.421875 48.1875 
Q 40.625 48.1875 47.75 41.5 
Q 54.890625 34.8125 54.890625 23.390625 
Q 54.890625 11.625 47.5625 5.09375 
Q 40.234375 -1.421875 26.90625 -1.421875 
Q 22.3125 -1.421875 17.546875 -0.640625 
Q 12.796875 0.140625 7.71875 1.703125 
L 7.71875 11.625 
Q 12.109375 9.234375 16.796875 8.0625 
Q 21.484375 6.890625 26.703125 6.890625 
Q 35.15625 6.890625 40.078125 11.328125 
Q 45.015625 15.765625 45.015625 23.390625 
Q 45.015625 31 40.078125 35.4375 
Q 35.15625 39.890625 26.703125 39.890625 
Q 22.75 39.890625 18.8125 39.015625 
Q 14.890625 38.140625 10.796875 36.28125 
z
" id="DejaVuSans-53"/>
      </defs>
      <g transform="translate(67.94575 266.598437)scale(0.1 -0.1)">
       <use xlink:href="#DejaVuSans-8722"/>
       <use x="83.789062" xlink:href="#DejaVuSans-53"/>
      </g>
     </g>
    </g>
    <g id="xtick_2">
     <g id="line2d_3">
      <path clip-path="url(#p42324a7577)" d="M 124.173724 252 
L 124.173724 34.56 
" style="fill:none;stroke:#b0b0b0;stroke-linecap:square;stroke-width:0.8;"/>
     </g>
     <g id="line2d_4">
      <g>
       <use style="stroke:#000000;stroke-width:0.8;" x="124.173724" xlink:href="#m5bd81f00f2" y="252"/>
      </g>
     </g>
     <g id="text_2">
      <!-- 0 -->
      <defs>
       <path d="M 31.78125 66.40625 
Q 24.171875 66.40625 20.328125 58.90625 
Q 16.5 51.421875 16.5 36.375 
Q 16.5 21.390625 20.328125 13.890625 
Q 24.171875 6.390625 31.78125 6.390625 
Q 39.453125 6.390625 43.28125 13.890625 
Q 47.125 21.390625 47.125 36.375 
Q 47.125 51.421875 43.28125 58.90625 
Q 39.453125 66.40625 31.78125 66.40625 
z
M 31.78125 74.21875 
Q 44.046875 74.21875 50.515625 64.515625 
Q 56.984375 54.828125 56.984375 36.375 
Q 56.984375 17.96875 50.515625 8.265625 
Q 44.046875 -1.421875 31.78125 -1.421875 
Q 19.53125 -1.421875 13.0625 8.265625 
Q 6.59375 17.96875 6.59375 36.375 
Q 6.59375 54.828125 13.0625 64.515625 
Q 19.53125 74.21875 31.78125 74.21875 
z
" id="DejaVuSans-48"/>
      </defs>
      <g transform="translate(120.992474 266.598437)scale(0.1 -0.1)">
       <use xlink:href="#DejaVuSans-48"/>
      </g>
     </g>
    </g>
    <g id="xtick_3">
     <g id="line2d_5">
      <path clip-path="url(#p42324a7577)" d="M 173.030604 252 
L 173.030604 34.56 
" style="fill:none;stroke:#b0b0b0;stroke-linecap:square;stroke-width:0.8;"/>
     </g>
     <g id="line2d_6">
      <g>
       <use style="stroke:#000000;stroke-width:0.8;" x="173.030604" xlink:href="#m5bd81f00f2" y="252"/>
      </g>
     </g>
     <g id="text_3">
      <!-- 5 -->
      <g transform="translate(169.849354 266.598437)scale(0.1 -0.1)">
       <use xlink:href="#DejaVuSans-53"/>
      </g>
     </g>
    </g>
    <g id="xtick_4">
     <g id="line2d_7">
      <path clip-path="url(#p42324a7577)" d="M 221.887484 252 
L 221.887484 34.56 
" style="fill:none;stroke:#b0b0b0;stroke-linecap:square;stroke-width:0.8;"/>
     </g>
     <g id="line2d_8">
      <g>
       <use style="stroke:#000000;stroke-width:0.8;" x="221.887484" xlink:href="#m5bd81f00f2" y="252"/>
      </g>
     </g>
     <g id="text_4">
      <!-- 10 -->
      <defs>
       <path d="M 12.40625 8.296875 
L 28.515625 8.296875 
L 28.515625 63.921875 
L 10.984375 60.40625 
L 10.984375 69.390625 
L 28.421875 72.90625 
L 38.28125 72.90625 
L 38.28125 8.296875 
L 54.390625 8.296875 
L 54.390625 0 
L 12.40625 0 
z
" id="DejaVuSans-49"/>
      </defs>
      <g transform="translate(215.524984 266.598437)scale(0.1 -0.1)">
       <use xlink:href="#DejaVuSans-49"/>
       <use x="63.623047" xlink:href="#DejaVuSans-48"/>
      </g>
     </g>
    </g>
    <g id="xtick_5">
     <g id="line2d_9">
      <path clip-path="url(#p42324a7577)" d="M 270.744364 252 
L 270.744364 34.56 
" style="fill:none;stroke:#b0b0b0;stroke-linecap:square;stroke-width:0.8;"/>
     </g>
     <g id="line2d_10">
      <g>
       <use style="stroke:#000000;stroke-width:0.8;" x="270.744364" xlink:href="#m5bd81f00f2" y="252"/>
      </g>
     </g>
     <g id="text_5">
      <!-- 15 -->
      <g transform="translate(264.381864 266.598437)scale(0.1 -0.1)">
       <use xlink:href="#DejaVuSans-49"/>
       <use x="63.623047" xlink:href="#DejaVuSans-53"/>
      </g>
     </g>
    </g>
    <g id="xtick_6">
     <g id="line2d_11">
      <path clip-path="url(#p42324a7577)" d="M 319.601244 252 
L 319.601244 34.56 
" style="fill:none;stroke:#b0b0b0;stroke-linecap:square;stroke-width:0.8;"/>
     </g>
     <g id="line2d_12">
      <g>
       <use style="stroke:#000000;stroke-width:0.8;" x="319.601244" xlink:href="#m5bd81f00f2" y="252"/>
      </g>
     </g>
     <g id="text_6">
      <!-- 20 -->
      <defs>
       <path d="M 19.1875 8.296875 
L 53.609375 8.296875 
L 53.609375 0 
L 7.328125 0 
L 7.328125 8.296875 
Q 12.9375 14.109375 22.625 23.890625 
Q 32.328125 33.6875 34.8125 36.53125 
Q 39.546875 41.84375 41.421875 45.53125 
Q 43.3125 49.21875 43.3125 52.78125 
Q 43.3125 58.59375 39.234375 62.25 
Q 35.15625 65.921875 28.609375 65.921875 
Q 23.96875 65.921875 18.8125 64.3125 
Q 13.671875 62.703125 7.8125 59.421875 
L 7.8125 69.390625 
Q 13.765625 71.78125 18.9375 73 
Q 24.125 74.21875 28.421875 74.21875 
Q 39.75 74.21875 46.484375 68.546875 
Q 53.21875 62.890625 53.21875 53.421875 
Q 53.21875 48.921875 51.53125 44.890625 
Q 49.859375 40.875 45.40625 35.40625 
Q 44.1875 33.984375 37.640625 27.21875 
Q 31.109375 20.453125 19.1875 8.296875 
z
" id="DejaVuSans-50"/>
      </defs>
      <g transform="translate(313.238744 266.598437)scale(0.1 -0.1)">
       <use xlink:href="#DejaVuSans-50"/>
       <use x="63.623047" xlink:href="#DejaVuSans-48"/>
      </g>
     </g>
    </g>
    <g id="xtick_7">
     <g id="line2d_13">
      <path clip-path="url(#p42324a7577)" d="M 368.458124 252 
L 368.458124 34.56 
" style="fill:none;stroke:#b0b0b0;stroke-linecap:square;stroke-width:0.8;"/>
     </g>
     <g id="line2d_14">
      <g>
       <use style="stroke:#000000;stroke-width:0.8;" x="368.458124" xlink:href="#m5bd81f00f2" y="252"/>
      </g>
     </g>
     <g id="text_7">
      <!-- 25 -->
      <g transform="translate(362.095624 266.598437)scale(0.1 -0.1)">
       <use xlink:href="#DejaVuSans-50"/>
       <use x="63.623047" xlink:href="#DejaVuSans-53"/>
      </g>
     </g>
    </g>
   </g>
   <g id="matplotlib.axis_2">
    <g id="ytick_1">
     <g id="line2d_15">
      <path clip-path="url(#p42324a7577)" d="M 54 240.520424 
L 388.8 240.520424 
" style="fill:none;stroke:#b0b0b0;stroke-linecap:square;stroke-width:0.8;"/>
     </g>
     <g id="line2d_16">
      <defs>
       <path d="M 0 0 
L -3.5 0 
" id="m3b4fafd211" style="stroke:#000000;stroke-width:0.8;"/>
      </defs>
      <g>
       <use style="stroke:#000000;stroke-width:0.8;" x="54" xlink:href="#m3b4fafd211" y="240.520424"/>
      </g>
     </g>
     <g id="text_8">
      <!-- 0.0 -->
      <defs>
       <path d="M 10.6875 12.40625 
L 21 12.40625 
L 21 0 
L 10.6875 0 
z
" id="DejaVuSans-46"/>
      </defs>
      <g transform="translate(31.096875 244.319643)scale(0.1 -0.1)">
       <use xlink:href="#DejaVuSans-48"/>
       <use x="63.623047" xlink:href="#DejaVuSans-46"/>
       <use x="95.410156" xlink:href="#DejaVuSans-48"/>
      </g>
     </g>
    </g>
    <g id="ytick_2">
     <g id="line2d_17">
      <path clip-path="url(#p42324a7577)" d="M 54 216.091984 
L 388.8 216.091984 
" style="fill:none;stroke:#b0b0b0;stroke-linecap:square;stroke-width:0.8;"/>
     </g>
     <g id="line2d_18">
      <g>
       <use style="stroke:#000000;stroke-width:0.8;" x="54" xlink:href="#m3b4fafd211" y="216.091984"/>
      </g>
     </g>
     <g id="text_9">
      <!-- 2.5 -->
      <g transform="translate(31.096875 219.891203)scale(0.1 -0.1)">
       <use xlink:href="#DejaVuSans-50"/>
       <use x="63.623047" xlink:href="#DejaVuSans-46"/>
       <use x="95.410156" xlink:href="#DejaVuSans-53"/>
      </g>
     </g>
    </g>
    <g id="ytick_3">
     <g id="line2d_19">
      <path clip-path="url(#p42324a7577)" d="M 54 191.663544 
L 388.8 191.663544 
" style="fill:none;stroke:#b0b0b0;stroke-linecap:square;stroke-width:0.8;"/>
     </g>
     <g id="line2d_20">
      <g>
       <use style="stroke:#000000;stroke-width:0.8;" x="54" xlink:href="#m3b4fafd211" y="191.663544"/>
      </g>
     </g>
     <g id="text_10">
      <!-- 5.0 -->
      <g transform="translate(31.096875 195.462763)scale(0.1 -0.1)">
       <use xlink:href="#DejaVuSans-53"/>
       <use x="63.623047" xlink:href="#DejaVuSans-46"/>
       <use x="95.410156" xlink:href="#DejaVuSans-48"/>
      </g>
     </g>
    </g>
    <g id="ytick_4">
     <g id="line2d_21">
      <path clip-path="url(#p42324a7577)" d="M 54 167.235104 
L 388.8 167.235104 
" style="fill:none;stroke:#b0b0b0;stroke-linecap:square;stroke-width:0.8;"/>
     </g>
     <g id="line2d_22">
      <g>
       <use style="stroke:#000000;stroke-width:0.8;" x="54" xlink:href="#m3b4fafd211" y="167.235104"/>
      </g>
     </g>
     <g id="text_11">
      <!-- 7.5 -->
      <defs>
       <path d="M 8.203125 72.90625 
L 55.078125 72.90625 
L 55.078125 68.703125 
L 28.609375 0 
L 18.3125 0 
L 43.21875 64.59375 
L 8.203125 64.59375 
z
" id="DejaVuSans-55"/>
      </defs>
      <g transform="translate(31.096875 171.034323)scale(0.1 -0.1)">
       <use xlink:href="#DejaVuSans-55"/>
       <use x="63.623047" xlink:href="#DejaVuSans-46"/>
       <use x="95.410156" xlink:href="#DejaVuSans-53"/>
      </g>
     </g>
    </g>
    <g id="ytick_5">
     <g id="line2d_23">
      <path clip-path="url(#p42324a7577)" d="M 54 142.806664 
L 388.8 142.806664 
" style="fill:none;stroke:#b0b0b0;stroke-linecap:square;stroke-width:0.8;"/>
     </g>
     <g id="line2d_24">
      <g>
       <use style="stroke:#000000;stroke-width:0.8;" x="54" xlink:href="#m3b4fafd211" y="142.806664"/>
      </g>
     </g>
     <g id="text_12">
      <!-- 10.0 -->
      <g transform="translate(24.734375 146.605883)scale(0.1 -0.1)">
       <use xlink:href="#DejaVuSans-49"/>
       <use x="63.623047" xlink:href="#DejaVuSans-48"/>
       <use x="127.246094" xlink:href="#DejaVuSans-46"/>
       <use x="159.033203" xlink:href="#DejaVuSans-48"/>
      </g>
     </g>
    </g>
    <g id="ytick_6">
     <g id="line2d_25">
      <path clip-path="url(#p42324a7577)" d="M 54 118.378224 
L 388.8 118.378224 
" style="fill:none;stroke:#b0b0b0;stroke-linecap:square;stroke-width:0.8;"/>
     </g>
     <g id="line2d_26">
      <g>
       <use style="stroke:#000000;stroke-width:0.8;" x="54" xlink:href="#m3b4fafd211" y="118.378224"/>
      </g>
     </g>
     <g id="text_13">
      <!-- 12.5 -->
      <g transform="translate(24.734375 122.177443)scale(0.1 -0.1)">
       <use xlink:href="#DejaVuSans-49"/>
       <use x="63.623047" xlink:href="#DejaVuSans-50"/>
       <use x="127.246094" xlink:href="#DejaVuSans-46"/>
       <use x="159.033203" xlink:href="#DejaVuSans-53"/>
      </g>
     </g>
    </g>
    <g id="ytick_7">
     <g id="line2d_27">
      <path clip-path="url(#p42324a7577)" d="M 54 93.949784 
L 388.8 93.949784 
" style="fill:none;stroke:#b0b0b0;stroke-linecap:square;stroke-width:0.8;"/>
     </g>
     <g id="line2d_28">
      <g>
       <use style="stroke:#000000;stroke-width:0.8;" x="54" xlink:href="#m3b4fafd211" y="93.949784"/>
      </g>
     </g>
     <g id="text_14">
      <!-- 15.0 -->
      <g transform="translate(24.734375 97.749003)scale(0.1 -0.1)">
       <use xlink:href="#DejaVuSans-49"/>
       <use x="63.623047" xlink:href="#DejaVuSans-53"/>
       <use x="127.246094" xlink:href="#DejaVuSans-46"/>
       <use x="159.033203" xlink:href="#DejaVuSans-48"/>
      </g>
     </g>
    </g>
    <g id="ytick_8">
     <g id="line2d_29">
      <path clip-path="url(#p42324a7577)" d="M 54 69.521344 
L 388.8 69.521344 
" style="fill:none;stroke:#b0b0b0;stroke-linecap:square;stroke-width:0.8;"/>
     </g>
     <g id="line2d_30">
      <g>
       <use style="stroke:#000000;stroke-width:0.8;" x="54" xlink:href="#m3b4fafd211" y="69.521344"/>
      </g>
     </g>
     <g id="text_15">
      <!-- 17.5 -->
      <g transform="translate(24.734375 73.320563)scale(0.1 -0.1)">
       <use xlink:href="#DejaVuSans-49"/>
       <use x="63.623047" xlink:href="#DejaVuSans-55"/>
       <use x="127.246094" xlink:href="#DejaVuSans-46"/>
       <use x="159.033203" xlink:href="#DejaVuSans-53"/>
      </g>
     </g>
    </g>
    <g id="ytick_9">
     <g id="line2d_31">
      <path clip-path="url(#p42324a7577)" d="M 54 45.092904 
L 388.8 45.092904 
" style="fill:none;stroke:#b0b0b0;stroke-linecap:square;stroke-width:0.8;"/>
     </g>
     <g id="line2d_32">
      <g>
       <use style="stroke:#000000;stroke-width:0.8;" x="54" xlink:href="#m3b4fafd211" y="45.092904"/>
      </g>
     </g>
     <g id="text_16">
      <!-- 20.0 -->
      <g transform="translate(24.734375 48.892123)scale(0.1 -0.1)">
       <use xlink:href="#DejaVuSans-50"/>
       <use x="63.623047" xlink:href="#DejaVuSans-48"/>
       <use x="127.246094" xlink:href="#DejaVuSans-46"/>
       <use x="159.033203" xlink:href="#DejaVuSans-48"/>
      </g>
     </g>
    </g>
   </g>
   <g id="line2d_33">
    <path clip-path="url(#p42324a7577)" d="M 122.577745 181.09418 
L 122.773173 184.641063 
L 123.261742 187.869535 
L 123.945738 190.837668 
L 124.922876 194.055736 
L 126.193154 197.421419 
L 127.756575 200.885584 
L 129.515422 204.241787 
L 131.567411 207.678802 
L 133.912542 211.160681 
L 136.453099 214.533004 
L 139.189085 217.802461 
L 142.120497 220.967097 
L 145.247338 224.018786 
L 148.471892 226.862561 
L 151.891873 229.579112 
L 155.311855 232.01361 
L 158.82955 234.2418 
L 162.249532 236.150417 
L 165.669514 237.80937 
L 168.991781 239.180856 
L 172.216335 240.280099 
L 175.343176 241.117954 
L 178.372302 241.701295 
L 181.206001 242.025901 
L 183.941987 242.114475 
L 186.482544 241.973131 
L 188.827675 241.622212 
L 190.977377 241.081887 
L 192.931653 240.372951 
L 194.788214 239.463275 
L 196.449348 238.402737 
L 197.915054 237.214596 
L 199.283047 235.816026 
L 200.455612 234.300523 
L 201.43275 232.700512 
L 202.312174 230.82992 
L 202.99617 228.851161 
L 203.484739 226.807758 
L 203.77788 224.843274 
L 203.875594 223.735682 
M 203.842996 219.286405 
L 203.452141 216.087616 
L 202.865859 213.193154 
L 201.986435 210.010112 
L 200.81387 206.666988 
L 199.348163 203.218121 
L 197.687029 199.879641 
L 195.732754 196.450472 
L 193.485338 192.967815 
L 191.042494 189.591269 
L 188.306509 186.196851 
L 185.375096 182.922539 
L 182.248255 179.771773 
L 179.023701 176.838729 
L 175.701433 174.113052 
L 172.281452 171.592185 
L 168.86147 169.340506 
L 165.343775 167.292279 
L 161.923793 165.554993 
L 158.503812 164.067546 
L 155.181544 162.866373 
L 151.95699 161.939573 
L 148.927863 161.296579 
L 145.99645 160.901578 
L 143.260465 160.755344 
L 140.719907 160.835727 
L 138.374777 161.121377 
L 136.127361 161.617633 
L 134.075372 162.297847 
L 132.21881 163.141775 
L 130.557676 164.127197 
L 128.994256 165.311093 
L 127.626264 166.619728 
L 126.355985 168.155951 
L 125.281133 169.817116 
L 124.401709 171.575092 
L 123.717713 173.382332 
L 123.131431 175.578166 
L 122.740576 178.026567 
L 122.577745 181.09418 
L 122.577745 181.09418 
" style="fill:none;stroke:#1f77b4;stroke-linecap:square;stroke-width:1.5;"/>
   </g>
   <g id="line2d_34">
    <path clip-path="url(#p42324a7577)" d="M 123.301521 145.482311 
L 123.692376 149.513772 
L 124.278658 153.141401 
L 125.158082 157.11689 
L 126.330647 161.284886 
L 127.69864 165.319877 
L 129.359774 169.525544 
L 131.314049 173.853173 
L 133.561465 178.268929 
L 136.004309 182.582239 
L 138.740295 186.963998 
L 141.769421 191.386608 
L 144.993975 195.699642 
L 148.413957 199.908915 
L 152.12708 204.121115 
L 155.937916 208.110978 
L 159.944181 211.986156 
L 164.048158 215.652131 
L 168.347564 219.192532 
L 172.646969 222.448533 
L 177.044089 225.501826 
L 181.441208 228.287811 
L 185.838327 230.814726 
L 190.235446 233.087029 
L 194.534852 235.063615 
L 198.834257 236.795512 
L 203.035949 238.246405 
L 207.042213 239.399603 
L 210.950763 240.297861 
L 214.7616 240.945085 
L 218.377009 241.33537 
L 221.796991 241.487021 
L 225.119258 241.412028 
L 228.246099 241.119071 
L 231.177512 240.624067 
L 233.913497 239.942995 
L 236.551768 239.054923 
L 238.994612 237.995187 
L 241.242029 236.779821 
L 243.294018 235.426428 
L 245.248293 233.870048 
L 247.007141 232.186895 
L 248.570561 230.398638 
L 250.036267 228.386275 
L 251.306546 226.273829 
L 252.479111 223.870221 
L 253.456249 221.328955 
L 254.237959 218.656189 
L 254.824241 215.856221 
L 255.215097 212.925612 
L 255.410524 209.765841 
M 255.33094 205.273524 
L 254.940085 201.242063 
L 254.353803 197.614434 
L 253.474379 193.638945 
L 252.301814 189.47095 
L 250.933821 185.435959 
L 249.272687 181.230291 
L 247.318412 176.902662 
L 245.070996 172.486907 
L 242.628152 168.173596 
L 239.892166 163.791837 
L 236.86304 159.369227 
L 233.638486 155.056193 
L 230.218504 150.84692 
L 226.505381 146.63472 
L 222.694544 142.644858 
L 218.68828 138.769679 
L 214.584302 135.103705 
L 210.284897 131.563304 
L 205.985491 128.307303 
L 201.588372 125.254009 
L 197.191253 122.468024 
L 192.794134 119.941109 
L 188.397015 117.668806 
L 184.097609 115.69222 
L 179.798204 113.960323 
L 175.596512 112.50943 
L 171.590248 111.356232 
L 167.681698 110.457974 
L 163.870861 109.810751 
L 160.255452 109.420466 
L 156.83547 109.268814 
L 153.513202 109.343808 
L 150.386362 109.636765 
L 147.454949 110.131769 
L 144.718964 110.81284 
L 142.080692 111.700913 
L 139.637848 112.760648 
L 137.390432 113.976014 
L 135.338443 115.329407 
L 133.384168 116.885788 
L 131.62532 118.56894 
L 130.0619 120.357197 
L 128.596194 122.36956 
L 127.325915 124.482006 
L 126.15335 126.885614 
L 125.176212 129.42688 
L 124.394502 132.099646 
L 123.808219 134.899614 
L 123.417364 137.830224 
L 123.221937 140.989994 
L 123.221937 140.989994 
" style="fill:none;stroke:#ff7f0e;stroke-linecap:square;stroke-width:1.5;"/>
   </g>
   <g id="line2d_35">
    <path clip-path="url(#p42324a7577)" d="M 123.524456 93.625153 
L 123.719883 99.089951 
L 124.208452 103.99556 
L 124.892448 108.466699 
L 125.869586 113.287887 
L 127.042151 117.961334 
L 128.507857 122.887133 
L 130.266705 127.991253 
L 132.318694 133.229341 
L 134.566111 138.359461 
L 137.106668 143.609126 
L 139.940367 148.949627 
L 143.067208 154.357168 
L 146.389476 159.660792 
L 150.004885 165.012875 
L 153.815721 170.261761 
L 157.919699 175.534099 
L 162.219105 180.694165 
L 166.713938 185.742043 
L 171.404198 190.674818 
L 176.289886 195.487057 
L 181.273288 200.083903 
L 186.354403 204.472574 
L 191.533233 208.656871 
L 196.809776 212.63768 
L 202.184033 216.413278 
L 207.558289 219.918218 
L 212.932546 223.160326 
L 218.306803 226.144745 
L 223.68106 228.874171 
L 228.957603 231.30627 
L 234.136432 233.452949 
L 239.217548 235.32404 
L 244.200949 236.927521 
L 249.086637 238.269655 
L 253.874612 239.355065 
L 258.467158 240.171842 
L 262.961991 240.746293 
L 267.261397 241.073843 
L 271.365375 241.169096 
L 275.371639 241.040335 
L 279.182475 240.69596 
L 282.797885 240.14913 
L 286.217866 239.413033 
L 289.540134 238.469897 
L 292.666974 237.350122 
L 295.598387 236.066823 
L 298.334372 234.633923 
L 300.972644 233.001165 
L 303.415488 231.229373 
L 305.662904 229.334302 
L 307.812607 227.231484 
L 309.766882 225.013483 
L 311.623444 222.560989 
L 313.284578 219.991595 
L 314.750284 217.324346 
L 316.118277 214.353234 
L 317.290842 211.247519 
L 318.267979 208.013492 
L 319.04969 204.657782 
L 319.635972 201.188207 
L 320.026827 197.617932 
L 320.222255 194.015761 
M 320.152798 188.143275 
L 319.761943 183.264116 
L 319.17566 178.892012 
L 318.296237 174.114939 
L 317.221385 169.496261 
L 315.853393 164.604902 
L 314.192259 159.525476 
L 312.237983 154.30619 
L 310.088281 149.198595 
L 307.645437 143.964614 
L 304.909451 138.634187 
L 301.880325 133.231692 
L 298.655771 127.932602 
L 295.138075 122.579281 
L 291.327239 117.19368 
L 287.320975 111.920677 
L 283.119283 106.75575 
L 278.722164 101.698266 
L 274.129617 96.750632 
L 269.341643 91.917787 
L 264.358241 87.206894 
L 259.277126 82.710782 
L 254.098296 78.424111 
L 248.821753 74.344727 
L 243.447496 70.473264 
L 238.07324 66.875855 
L 232.698983 63.543662 
L 227.324726 60.470649 
L 221.950469 57.653293 
L 216.673926 55.134745 
L 211.397383 52.862545 
L 206.218554 50.875068 
L 201.137438 49.163757 
L 196.154037 47.7219 
L 191.366062 46.565733 
L 186.675802 45.661103 
L 182.180969 45.017481 
L 177.78385 44.612769 
L 173.582158 44.448809 
L 169.575894 44.51151 
L 165.765057 44.787114 
L 162.051934 45.277912 
L 158.534239 45.966872 
L 155.211971 46.841071 
L 152.085131 47.887261 
L 149.056004 49.135832 
L 146.222305 50.544767 
L 143.584034 52.100199 
L 141.043476 53.859937 
L 138.698346 55.757289 
L 136.548643 57.776582 
L 134.496654 60.013985 
L 132.640093 62.368986 
L 130.978959 64.822508 
L 129.415538 67.533328 
L 128.047546 70.35214 
L 126.874981 73.256544 
L 125.800129 76.545435 
L 124.920706 80.021286 
L 124.236709 83.748554 
L 123.845854 86.905217 
L 123.650427 89.378331 
L 123.524456 93.625153 
L 123.524456 93.625153 
" style="fill:none;stroke:#2ca02c;stroke-linecap:square;stroke-width:1.5;"/>
   </g>
   <g id="patch_3">
    <path d="M 54 252 
L 54 34.56 
" style="fill:none;stroke:#000000;stroke-linecap:square;stroke-linejoin:miter;stroke-width:0.8;"/>
   </g>
   <g id="patch_4">
    <path d="M 388.8 252 
L 388.8 34.56 
" style="fill:none;stroke:#000000;stroke-linecap:square;stroke-linejoin:miter;stroke-width:0.8;"/>
   </g>
   <g id="patch_5">
    <path d="M 54 252 
L 388.8 252 
" style="fill:none;stroke:#000000;stroke-linecap:square;stroke-linejoin:miter;stroke-width:0.8;"/>
   </g>
   <g id="patch_6">
    <path d="M 54 34.56 
L 388.8 34.56 
" style="fill:none;stroke:#000000;stroke-linecap:square;stroke-linejoin:miter;stroke-width:0.8;"/>
   </g>
   <g id="text_17">
    <!-- (x-a)^2 + (y-a)^2 + bxy = k -->
    <defs>
     <path d="M 31 75.875 
Q 24.46875 64.65625 21.28125 53.65625 
Q 18.109375 42.671875 18.109375 31.390625 
Q 18.109375 20.125 21.3125 9.0625 
Q 24.515625 -2 31 -13.1875 
L 23.1875 -13.1875 
Q 15.875 -1.703125 12.234375 9.375 
Q 8.59375 20.453125 8.59375 31.390625 
Q 8.59375 42.28125 12.203125 53.3125 
Q 15.828125 64.359375 23.1875 75.875 
z
" id="DejaVuSans-40"/>
     <path d="M 54.890625 54.6875 
L 35.109375 28.078125 
L 55.90625 0 
L 45.3125 0 
L 29.390625 21.484375 
L 13.484375 0 
L 2.875 0 
L 24.125 28.609375 
L 4.6875 54.6875 
L 15.28125 54.6875 
L 29.78125 35.203125 
L 44.28125 54.6875 
z
" id="DejaVuSans-120"/>
     <path d="M 4.890625 31.390625 
L 31.203125 31.390625 
L 31.203125 23.390625 
L 4.890625 23.390625 
z
" id="DejaVuSans-45"/>
     <path d="M 34.28125 27.484375 
Q 23.390625 27.484375 19.1875 25 
Q 14.984375 22.515625 14.984375 16.5 
Q 14.984375 11.71875 18.140625 8.90625 
Q 21.296875 6.109375 26.703125 6.109375 
Q 34.1875 6.109375 38.703125 11.40625 
Q 43.21875 16.703125 43.21875 25.484375 
L 43.21875 27.484375 
z
M 52.203125 31.203125 
L 52.203125 0 
L 43.21875 0 
L 43.21875 8.296875 
Q 40.140625 3.328125 35.546875 0.953125 
Q 30.953125 -1.421875 24.3125 -1.421875 
Q 15.921875 -1.421875 10.953125 3.296875 
Q 6 8.015625 6 15.921875 
Q 6 25.140625 12.171875 29.828125 
Q 18.359375 34.515625 30.609375 34.515625 
L 43.21875 34.515625 
L 43.21875 35.40625 
Q 43.21875 41.609375 39.140625 45 
Q 35.0625 48.390625 27.6875 48.390625 
Q 23 48.390625 18.546875 47.265625 
Q 14.109375 46.140625 10.015625 43.890625 
L 10.015625 52.203125 
Q 14.9375 54.109375 19.578125 55.046875 
Q 24.21875 56 28.609375 56 
Q 40.484375 56 46.34375 49.84375 
Q 52.203125 43.703125 52.203125 31.203125 
z
" id="DejaVuSans-97"/>
     <path d="M 8.015625 75.875 
L 15.828125 75.875 
Q 23.140625 64.359375 26.78125 53.3125 
Q 30.421875 42.28125 30.421875 31.390625 
Q 30.421875 20.453125 26.78125 9.375 
Q 23.140625 -1.703125 15.828125 -13.1875 
L 8.015625 -13.1875 
Q 14.5 -2 17.703125 9.0625 
Q 20.90625 20.125 20.90625 31.390625 
Q 20.90625 42.671875 17.703125 53.65625 
Q 14.5 64.65625 8.015625 75.875 
z
" id="DejaVuSans-41"/>
     <path d="M 46.6875 72.90625 
L 73.1875 45.703125 
L 63.375 45.703125 
L 41.890625 64.984375 
L 20.40625 45.703125 
L 10.59375 45.703125 
L 37.109375 72.90625 
z
" id="DejaVuSans-94"/>
     <path id="DejaVuSans-32"/>
     <path d="M 46 62.703125 
L 46 35.5 
L 73.1875 35.5 
L 73.1875 27.203125 
L 46 27.203125 
L 46 0 
L 37.796875 0 
L 37.796875 27.203125 
L 10.59375 27.203125 
L 10.59375 35.5 
L 37.796875 35.5 
L 37.796875 62.703125 
z
" id="DejaVuSans-43"/>
     <path d="M 32.171875 -5.078125 
Q 28.375 -14.84375 24.75 -17.8125 
Q 21.140625 -20.796875 15.09375 -20.796875 
L 7.90625 -20.796875 
L 7.90625 -13.28125 
L 13.1875 -13.28125 
Q 16.890625 -13.28125 18.9375 -11.515625 
Q 21 -9.765625 23.484375 -3.21875 
L 25.09375 0.875 
L 2.984375 54.6875 
L 12.5 54.6875 
L 29.59375 11.921875 
L 46.6875 54.6875 
L 56.203125 54.6875 
z
" id="DejaVuSans-121"/>
     <path d="M 48.6875 27.296875 
Q 48.6875 37.203125 44.609375 42.84375 
Q 40.53125 48.484375 33.40625 48.484375 
Q 26.265625 48.484375 22.1875 42.84375 
Q 18.109375 37.203125 18.109375 27.296875 
Q 18.109375 17.390625 22.1875 11.75 
Q 26.265625 6.109375 33.40625 6.109375 
Q 40.53125 6.109375 44.609375 11.75 
Q 48.6875 17.390625 48.6875 27.296875 
z
M 18.109375 46.390625 
Q 20.953125 51.265625 25.265625 53.625 
Q 29.59375 56 35.59375 56 
Q 45.5625 56 51.78125 48.09375 
Q 58.015625 40.1875 58.015625 27.296875 
Q 58.015625 14.40625 51.78125 6.484375 
Q 45.5625 -1.421875 35.59375 -1.421875 
Q 29.59375 -1.421875 25.265625 0.953125 
Q 20.953125 3.328125 18.109375 8.203125 
L 18.109375 0 
L 9.078125 0 
L 9.078125 75.984375 
L 18.109375 75.984375 
z
" id="DejaVuSans-98"/>
     <path d="M 10.59375 45.40625 
L 73.1875 45.40625 
L 73.1875 37.203125 
L 10.59375 37.203125 
z
M 10.59375 25.484375 
L 73.1875 25.484375 
L 73.1875 17.1875 
L 10.59375 17.1875 
z
" id="DejaVuSans-61"/>
     <path d="M 9.078125 75.984375 
L 18.109375 75.984375 
L 18.109375 31.109375 
L 44.921875 54.6875 
L 56.390625 54.6875 
L 27.390625 29.109375 
L 57.625 0 
L 45.90625 0 
L 18.109375 26.703125 
L 18.109375 0 
L 9.078125 0 
z
" id="DejaVuSans-107"/>
    </defs>
    <g transform="translate(134.650313 28.56)scale(0.12 -0.12)">
     <use xlink:href="#DejaVuSans-40"/>
     <use x="39.013672" xlink:href="#DejaVuSans-120"/>
     <use x="98.193359" xlink:href="#DejaVuSans-45"/>
     <use x="134.277344" xlink:href="#DejaVuSans-97"/>
     <use x="195.556641" xlink:href="#DejaVuSans-41"/>
     <use x="234.570312" xlink:href="#DejaVuSans-94"/>
     <use x="318.359375" xlink:href="#DejaVuSans-50"/>
     <use x="381.982422" xlink:href="#DejaVuSans-32"/>
     <use x="413.769531" xlink:href="#DejaVuSans-43"/>
     <use x="497.558594" xlink:href="#DejaVuSans-32"/>
     <use x="529.345703" xlink:href="#DejaVuSans-40"/>
     <use x="568.359375" xlink:href="#DejaVuSans-121"/>
     <use x="627.523438" xlink:href="#DejaVuSans-45"/>
     <use x="663.607422" xlink:href="#DejaVuSans-97"/>
     <use x="724.886719" xlink:href="#DejaVuSans-41"/>
     <use x="763.900391" xlink:href="#DejaVuSans-94"/>
     <use x="847.689453" xlink:href="#DejaVuSans-50"/>
     <use x="911.3125" xlink:href="#DejaVuSans-32"/>
     <use x="943.099609" xlink:href="#DejaVuSans-43"/>
     <use x="1026.888672" xlink:href="#DejaVuSans-32"/>
     <use x="1058.675781" xlink:href="#DejaVuSans-98"/>
     <use x="1122.152344" xlink:href="#DejaVuSans-120"/>
     <use x="1181.332031" xlink:href="#DejaVuSans-121"/>
     <use x="1240.511719" xlink:href="#DejaVuSans-32"/>
     <use x="1272.298828" xlink:href="#DejaVuSans-61"/>
     <use x="1356.087891" xlink:href="#DejaVuSans-32"/>
     <use x="1387.875" xlink:href="#DejaVuSans-107"/>
    </g>
   </g>
   <g id="legend_1">
    <g id="patch_7">
     <path d="M 255.50625 86.594375 
L 381.8 86.594375 
Q 383.8 86.594375 383.8 84.594375 
L 383.8 41.56 
Q 383.8 39.56 381.8 39.56 
L 255.50625 39.56 
Q 253.50625 39.56 253.50625 41.56 
L 253.50625 84.594375 
Q 253.50625 86.594375 255.50625 86.594375 
z
" style="fill:#ffffff;opacity:0.8;stroke:#cccccc;stroke-linejoin:miter;"/>
    </g>
    <g id="line2d_36">
     <path d="M 257.50625 47.658438 
L 277.50625 47.658438 
" style="fill:none;stroke:#1f77b4;stroke-linecap:square;stroke-width:1.5;"/>
    </g>
    <g id="line2d_37"/>
    <g id="text_18">
     <!-- a=6, b=1, k=36 -->
     <defs>
      <path d="M 33.015625 40.375 
Q 26.375 40.375 22.484375 35.828125 
Q 18.609375 31.296875 18.609375 23.390625 
Q 18.609375 15.53125 22.484375 10.953125 
Q 26.375 6.390625 33.015625 6.390625 
Q 39.65625 6.390625 43.53125 10.953125 
Q 47.40625 15.53125 47.40625 23.390625 
Q 47.40625 31.296875 43.53125 35.828125 
Q 39.65625 40.375 33.015625 40.375 
z
M 52.59375 71.296875 
L 52.59375 62.3125 
Q 48.875 64.0625 45.09375 64.984375 
Q 41.3125 65.921875 37.59375 65.921875 
Q 27.828125 65.921875 22.671875 59.328125 
Q 17.53125 52.734375 16.796875 39.40625 
Q 19.671875 43.65625 24.015625 45.921875 
Q 28.375 48.1875 33.59375 48.1875 
Q 44.578125 48.1875 50.953125 41.515625 
Q 57.328125 34.859375 57.328125 23.390625 
Q 57.328125 12.15625 50.6875 5.359375 
Q 44.046875 -1.421875 33.015625 -1.421875 
Q 20.359375 -1.421875 13.671875 8.265625 
Q 6.984375 17.96875 6.984375 36.375 
Q 6.984375 53.65625 15.1875 63.9375 
Q 23.390625 74.21875 37.203125 74.21875 
Q 40.921875 74.21875 44.703125 73.484375 
Q 48.484375 72.75 52.59375 71.296875 
z
" id="DejaVuSans-54"/>
      <path d="M 11.71875 12.40625 
L 22.015625 12.40625 
L 22.015625 4 
L 14.015625 -11.625 
L 7.71875 -11.625 
L 11.71875 4 
z
" id="DejaVuSans-44"/>
      <path d="M 40.578125 39.3125 
Q 47.65625 37.796875 51.625 33 
Q 55.609375 28.21875 55.609375 21.1875 
Q 55.609375 10.40625 48.1875 4.484375 
Q 40.765625 -1.421875 27.09375 -1.421875 
Q 22.515625 -1.421875 17.65625 -0.515625 
Q 12.796875 0.390625 7.625 2.203125 
L 7.625 11.71875 
Q 11.71875 9.328125 16.59375 8.109375 
Q 21.484375 6.890625 26.8125 6.890625 
Q 36.078125 6.890625 40.9375 10.546875 
Q 45.796875 14.203125 45.796875 21.1875 
Q 45.796875 27.640625 41.28125 31.265625 
Q 36.765625 34.90625 28.71875 34.90625 
L 20.21875 34.90625 
L 20.21875 43.015625 
L 29.109375 43.015625 
Q 36.375 43.015625 40.234375 45.921875 
Q 44.09375 48.828125 44.09375 54.296875 
Q 44.09375 59.90625 40.109375 62.90625 
Q 36.140625 65.921875 28.71875 65.921875 
Q 24.65625 65.921875 20.015625 65.03125 
Q 15.375 64.15625 9.8125 62.3125 
L 9.8125 71.09375 
Q 15.4375 72.65625 20.34375 73.4375 
Q 25.25 74.21875 29.59375 74.21875 
Q 40.828125 74.21875 47.359375 69.109375 
Q 53.90625 64.015625 53.90625 55.328125 
Q 53.90625 49.265625 50.4375 45.09375 
Q 46.96875 40.921875 40.578125 39.3125 
z
" id="DejaVuSans-51"/>
     </defs>
     <g transform="translate(285.50625 51.158438)scale(0.1 -0.1)">
      <use xlink:href="#DejaVuSans-97"/>
      <use x="61.279297" xlink:href="#DejaVuSans-61"/>
      <use x="145.068359" xlink:href="#DejaVuSans-54"/>
      <use x="208.691406" xlink:href="#DejaVuSans-44"/>
      <use x="240.478516" xlink:href="#DejaVuSans-32"/>
      <use x="272.265625" xlink:href="#DejaVuSans-98"/>
      <use x="335.742188" xlink:href="#DejaVuSans-61"/>
      <use x="419.53125" xlink:href="#DejaVuSans-49"/>
      <use x="483.154297" xlink:href="#DejaVuSans-44"/>
      <use x="514.941406" xlink:href="#DejaVuSans-32"/>
      <use x="546.728516" xlink:href="#DejaVuSans-107"/>
      <use x="604.638672" xlink:href="#DejaVuSans-61"/>
      <use x="688.427734" xlink:href="#DejaVuSans-51"/>
      <use x="752.050781" xlink:href="#DejaVuSans-54"/>
     </g>
    </g>
    <g id="line2d_38">
     <path d="M 257.50625 62.336563 
L 277.50625 62.336563 
" style="fill:none;stroke:#ff7f0e;stroke-linecap:square;stroke-width:1.5;"/>
    </g>
    <g id="line2d_39"/>
    <g id="text_19">
     <!-- a=10, b=1, k=100 -->
     <g transform="translate(285.50625 65.836563)scale(0.1 -0.1)">
      <use xlink:href="#DejaVuSans-97"/>
      <use x="61.279297" xlink:href="#DejaVuSans-61"/>
      <use x="145.068359" xlink:href="#DejaVuSans-49"/>
      <use x="208.691406" xlink:href="#DejaVuSans-48"/>
      <use x="272.314453" xlink:href="#DejaVuSans-44"/>
      <use x="304.101562" xlink:href="#DejaVuSans-32"/>
      <use x="335.888672" xlink:href="#DejaVuSans-98"/>
      <use x="399.365234" xlink:href="#DejaVuSans-61"/>
      <use x="483.154297" xlink:href="#DejaVuSans-49"/>
      <use x="546.777344" xlink:href="#DejaVuSans-44"/>
      <use x="578.564453" xlink:href="#DejaVuSans-32"/>
      <use x="610.351562" xlink:href="#DejaVuSans-107"/>
      <use x="668.261719" xlink:href="#DejaVuSans-61"/>
      <use x="752.050781" xlink:href="#DejaVuSans-49"/>
      <use x="815.673828" xlink:href="#DejaVuSans-48"/>
      <use x="879.296875" xlink:href="#DejaVuSans-48"/>
     </g>
    </g>
    <g id="line2d_40">
     <path d="M 257.50625 77.014688 
L 277.50625 77.014688 
" style="fill:none;stroke:#2ca02c;stroke-linecap:square;stroke-width:1.5;"/>
    </g>
    <g id="line2d_41"/>
    <g id="text_20">
     <!-- a=15, b=1, k=225 -->
     <g transform="translate(285.50625 80.514688)scale(0.1 -0.1)">
      <use xlink:href="#DejaVuSans-97"/>
      <use x="61.279297" xlink:href="#DejaVuSans-61"/>
      <use x="145.068359" xlink:href="#DejaVuSans-49"/>
      <use x="208.691406" xlink:href="#DejaVuSans-53"/>
      <use x="272.314453" xlink:href="#DejaVuSans-44"/>
      <use x="304.101562" xlink:href="#DejaVuSans-32"/>
      <use x="335.888672" xlink:href="#DejaVuSans-98"/>
      <use x="399.365234" xlink:href="#DejaVuSans-61"/>
      <use x="483.154297" xlink:href="#DejaVuSans-49"/>
      <use x="546.777344" xlink:href="#DejaVuSans-44"/>
      <use x="578.564453" xlink:href="#DejaVuSans-32"/>
      <use x="610.351562" xlink:href="#DejaVuSans-107"/>
      <use x="668.261719" xlink:href="#DejaVuSans-61"/>
      <use x="752.050781" xlink:href="#DejaVuSans-50"/>
      <use x="815.673828" xlink:href="#DejaVuSans-50"/>
      <use x="879.296875" xlink:href="#DejaVuSans-53"/>
     </g>
    </g>
   </g>
  </g>
 </g>
 <defs>
  <clipPath id="p42324a7577">
   <rect height="217.44" width="334.8" x="54" y="34.56"/>
  </clipPath>
 </defs>
</svg>
